<?xml version="1.0" encoding="utf-8"?>
<!-- Generator: Adobe Illustrator 27.9.0, SVG Export Plug-In . SVG Version: 6.00 Build 0)  -->
<svg version="1.1" xmlns="http://www.w3.org/2000/svg" xmlns:xlink="http://www.w3.org/1999/xlink" x="0px" y="0px"
	 viewBox="0 0 125 125" style="enable-background:new 0 0 125 125;" xml:space="preserve">
<style type="text/css">
	.st0{display:none;}
	.st1{display:inline;}
	.st2{fill:none;}
	.st3{display:inline;fill:#5D0F68;}
	.st4{fill:#F2D1D5;}
	.st5{fill:#E2EFD4;}
	.st6{fill:#FFE5CA;}
	.st7{fill:#CCBDD5;}
	.st8{fill:#F4D0C1;}
	.st9{fill:#CBD3E2;}
	.st10{fill:#D63676;}
	.st11{fill:#DAEAF3;}
	.st12{fill:#48B1D6;}
	.st13{fill:#F7921E;}
	.st14{fill:#5D0F68;}
	.st15{fill:#D72229;}
	.st16{fill:#7AC143;}
	.st17{fill:#00679B;}
</style>
<g id="Icon_pos">
</g>
<g id="Icon_circle" class="st0">
</g>
<g id="Layer_4">
	<rect x="0" class="st11" width="125" height="125"/>
	<g id="Icon_pos_00000174596876064382188910000010987274983815690930_">
		<path class="st12" d="M76.8,61.1l-2.3,2.4c-0.3,0.3-0.6,0.4-1,0.4s-0.8-0.2-1-0.5l-3-3.6l-3,3.3c-0.3,0.3-0.6,0.5-1,0.4
			c-0.4,0-0.8-0.2-1-0.5l-2.8-3.3l-2.2,2.5c-0.3,0.3-0.7,0.5-1.1,0.5c-0.4,0-0.8-0.2-1-0.5l-0.8-1L33.5,96.9
			c-0.1,0.2-0.3,0.3-0.5,0.3c-0.1,0-0.2,0-0.3-0.1c-0.3-0.2-0.3-0.5-0.2-0.8l23.1-35.8c0.2-0.3,0.5-0.4,0.8-0.4s0.6,0.1,0.8,0.4
			l0.9,1.2c0.1,0.1,0.1,0.1,0.2,0.1c0,0,0.1,0,0.2-0.1l2.4-2.7c0.2-0.2,0.5-0.4,0.7-0.3c0.3,0,0.6,0.1,0.7,0.3l2.9,3.4
			c0.1,0.1,0.1,0.1,0.2,0.1c0,0,0.1,0,0.2-0.1l3.2-3.5c0.2-0.2,0.5-0.3,0.7-0.3c0.3,0,0.5,0.1,0.7,0.3l3.2,3.8
			c0.1,0.1,0.1,0.1,0.2,0.1c0,0,0.1,0,0.2-0.1l2.5-2.6c0.2-0.2,0.5-0.3,0.8-0.3s0.6,0.2,0.7,0.4l22.5,35
			c7.6-8.7,12.2-20.1,12.2-32.7c0-27.6-22.4-50-50-50s-50,22.4-50,50c0,8.2,2,16,5.5,22.9L42.6,52c0.4-0.5,1.2-0.5,1.6,0l8,10.8
			c0.2,0.3,0.1,0.6-0.1,0.8c-0.3,0.2-0.6,0.1-0.8-0.1l-7.8-10.6L18.8,86.2c-0.1,0.1-0.1,0.1-0.2,0.2c8.5,15.6,25,26.1,43.9,26.1
			c14.6,0,27.8-6.3,36.9-16.3L76.8,61.1z M57.6,56.7L57.6,56.7l1-1.6l7.5-11.7V26c0-0.2,0.1-0.4,0.3-0.5c0.2-0.1,0.4-0.1,0.6,0
			l8.3,4.3c0.2,0.1,0.3,0.3,0.3,0.5s-0.1,0.4-0.3,0.5l-8,4.1v8.5l0.8,1.2l7.7,12c0.1,0.1,0.1,0.2,0.1,0.3s0,0.2-0.1,0.2l-2.4,2.5
			l0,0l-0.1,0.1l0,0h-0.1l0,0h-0.1l0,0c0,0-0.1,0-0.1-0.1l0,0l-3.2-3.8l-0.1-0.1c0,0,0,0-0.1,0h-0.1h-0.1c0,0,0,0-0.1,0
			c-0.1,0-0.1,0.1-0.1,0.1l-2.4,2.6l-0.9,0.9l-0.1,0.1l0,0h-0.1l0,0h-0.1l0,0c0,0-0.1,0-0.1-0.1l0,0l-2.6-3.1l-0.4-0.5l-0.1-0.1
			c0,0,0,0-0.1,0h-0.1h-0.1c0,0,0,0-0.1,0l-0.1,0.1l0,0l-1,1.1l-1.5,1.7l0,0l-0.1,0.1l0,0h-0.1l0,0h-0.1c0,0,0,0-0.1,0
			c0,0-0.1,0-0.1-0.1l0,0l-0.7-0.9l-0.3-0.4l-0.1-0.1V57l0,0C57.5,56.9,57.5,56.8,57.6,56.7z"/>
	</g>
</g>
</svg>
