<?xml version="1.0" encoding="utf-8"?>
<!-- Generator: Adobe Illustrator 27.9.0, SVG Export Plug-In . SVG Version: 6.00 Build 0)  -->
<svg version="1.1" xmlns="http://www.w3.org/2000/svg" xmlns:xlink="http://www.w3.org/1999/xlink" x="0px" y="0px"
	 viewBox="0 0 125 125" style="enable-background:new 0 0 125 125;" xml:space="preserve">
<style type="text/css">
	.st0{display:none;}
	.st1{display:inline;}
	.st2{fill:none;}
	.st3{display:inline;fill:#5D0F68;}
	.st4{fill:#F2D1D5;}
	.st5{fill:#E2EFD4;}
	.st6{fill:#FFE5CA;}
	.st7{fill:#CCBDD5;}
	.st8{fill:#F4D0C1;}
	.st9{fill:#CBD3E2;}
	.st10{fill:#D63676;}
	.st11{fill:#DAEAF3;}
	.st12{fill:#48B1D6;}
	.st13{fill:#F7921E;}
	.st14{fill:#5D0F68;}
	.st15{fill:#D72229;}
	.st16{fill:#7AC143;}
	.st17{fill:#00679B;}
</style>
<g id="Icon_pos">
</g>
<g id="Icon_circle" class="st0">
	<g class="st1">
		<rect x="12.6" y="-5.5" class="st2" width="99.8" height="15.5"/>
		<path d="M55.6,4.5l0.9,0.2c-0.2,0.8-0.6,1.4-1.1,1.8c-0.5,0.4-1.1,0.6-1.9,0.6c-0.8,0-1.4-0.2-1.9-0.5c-0.5-0.3-0.9-0.8-1.1-1.4
			S50.2,4,50.2,3.3c0-0.7,0.1-1.4,0.4-2c0.3-0.6,0.7-1,1.2-1.3c0.5-0.3,1.1-0.4,1.7-0.4c0.7,0,1.3,0.2,1.8,0.5s0.8,0.9,1,1.5L55.5,2
			c-0.2-0.5-0.4-0.9-0.7-1.1s-0.7-0.4-1.2-0.4c-0.6,0-1,0.1-1.4,0.4S51.6,1.5,51.4,2c-0.1,0.4-0.2,0.9-0.2,1.4
			c0,0.6,0.1,1.1,0.3,1.6c0.2,0.5,0.5,0.8,0.8,1s0.8,0.3,1.2,0.3c0.5,0,1-0.2,1.3-0.5S55.5,5.1,55.6,4.5z"/>
		<path d="M57.6,0.8v-1h0.9v1H57.6z M57.6,7V1.8h0.9V7H57.6z"/>
		<path d="M59.8,7V1.8h0.8v0.8C60.8,2.2,61,2,61.2,1.9s0.4-0.2,0.6-0.2c0.3,0,0.6,0.1,0.9,0.3l-0.3,0.8c-0.2-0.1-0.4-0.2-0.6-0.2
			c-0.2,0-0.4,0.1-0.5,0.2C61,2.9,60.9,3,60.8,3.2c-0.1,0.3-0.1,0.7-0.1,1V7H59.8z"/>
		<path d="M66.5,5.1l0.9,0.1c-0.1,0.6-0.3,1.1-0.7,1.4c-0.4,0.3-0.9,0.5-1.4,0.5c-0.7,0-1.3-0.2-1.7-0.7c-0.4-0.5-0.6-1.1-0.6-2
			c0-0.6,0.1-1,0.3-1.5S63.6,2.2,64,2c0.4-0.2,0.8-0.3,1.2-0.3c0.6,0,1,0.1,1.4,0.4c0.4,0.3,0.6,0.7,0.7,1.2l-0.9,0.1
			c-0.1-0.3-0.2-0.6-0.4-0.8c-0.2-0.2-0.5-0.3-0.7-0.3c-0.4,0-0.8,0.2-1.1,0.5c-0.3,0.3-0.4,0.8-0.4,1.5c0,0.7,0.1,1.2,0.4,1.5
			s0.6,0.5,1,0.5c0.3,0,0.6-0.1,0.9-0.3S66.5,5.5,66.5,5.1z"/>
		<path d="M68.1,7v-7.2H69V7H68.1z"/>
		<path d="M73.9,5.3l0.9,0.1C74.7,6,74.4,6.4,74,6.7s-0.9,0.4-1.5,0.4c-0.8,0-1.4-0.2-1.8-0.7c-0.4-0.5-0.7-1.1-0.7-2
			c0-0.9,0.2-1.5,0.7-2s1-0.7,1.7-0.7c0.7,0,1.3,0.2,1.7,0.7s0.7,1.1,0.7,2c0,0.1,0,0.1,0,0.2H71c0,0.6,0.2,1,0.5,1.3
			s0.7,0.5,1.1,0.5c0.3,0,0.6-0.1,0.8-0.3S73.8,5.7,73.9,5.3z M71,3.9h2.9c0-0.4-0.1-0.8-0.3-1c-0.3-0.3-0.6-0.5-1.1-0.5
			c-0.4,0-0.7,0.1-1,0.4C71.2,3.1,71.1,3.4,71,3.9z"/>
	</g>
	<circle class="st3" cx="62.5" cy="62.5" r="50"/>
</g>
<g id="Layer_4">
	<rect x="0" class="st4" width="125" height="125"/>
	<g id="Icon_pos_00000049197945653780298770000012157145701755205540_">
		<g>
			<path class="st10" d="M54.3,111.8l0.2-40.6l-17.6,34.2C42.1,108.6,48,110.8,54.3,111.8z"/>
			<path class="st10" d="M62.5,12.5c-27.6,0-50,22.4-50,50c0,17.1,8.6,32.2,21.7,41.2L54,65.4c0.1-0.2,0.4-0.3,0.6-0.3h0.2h0.9h0.6
				l0,0h0.8c0.2,0,0.4,0.1,0.5,0.3l19.8,44.8c20.5-6.5,35.1-25.4,35.1-47.7C112.5,34.9,90.1,12.5,62.5,12.5z M26.6,53.7L25,53.9
				c-0.6,0.1-1.2-0.4-1.3-1l-0.5-3.6c-0.1-0.6,0.4-1.2,1-1.3l1.6-0.2c0.6-0.1,1.2,0.4,1.3,1l0.5,3.6C27.6,53,27.2,53.6,26.6,53.7z
				 M36.1,51.8l-6.3,0.8c-0.5,0.1-1-0.3-1.1-0.9L28.4,49c-0.1-0.5,0.3-1,0.9-1.1l6.3-0.8c0.5-0.1,1,0.3,1.1,0.9l0.3,2.7
				C37,51.2,36.6,51.7,36.1,51.8z M58,63.9c0,0.1-0.1,0.2-0.2,0.2h-3.4c-0.1,0-0.2-0.1-0.2-0.2v-7.8c0-0.2,0.2-0.2,0.3-0.1
				c0.4,0.4,1,0.6,1.6,0.6s1.2-0.2,1.6-0.6c0.1-0.1,0.3,0,0.3,0.1C58,56.1,58,63.9,58,63.9z M54.4,54c0-0.9,0.8-1.7,1.7-1.7
				s1.7,0.8,1.7,1.7c0,0.4-0.2,0.8-0.4,1.1c-0.3,0.3-0.8,0.6-1.3,0.6s-1-0.2-1.3-0.6C54.6,54.8,54.4,54.4,54.4,54z M60.9,50.6
				l-21.5,1.7c-0.6,0-1.2-0.4-1.2-1l-0.5-4.1c-0.1-0.6,0.3-1.2,0.9-1.3l21.2-3.8c0.7-0.1,1.3,0.3,1.4,1l0.8,6.3
				C62.1,50,61.6,50.6,60.9,50.6z M97.2,50.4l-32.6,1.9c-0.6,0-1.1-0.4-1.2-1L62,40.8c-0.1-0.6,0.3-1.1,0.9-1.3l32-6.4
				c0.6-0.1,1.3,0.3,1.3,1l1.9,15.1C98.4,49.7,97.9,50.3,97.2,50.4z"/>
			<path class="st10" d="M57.7,71.8l-0.2,40.4c1.7,0.2,3.4,0.3,5.1,0.3c4.3,0,8.5-0.5,12.5-1.6L57.7,71.8z"/>
		</g>
	</g>
</g>
</svg>
